<?xml version="1.0" encoding="utf-8"?>
<!-- Generator: Adobe Illustrator 15.1.0, SVG Export Plug-In . SVG Version: 6.00 Build 0)  -->
<!DOCTYPE svg PUBLIC "-//W3C//DTD SVG 1.1//EN" "http://www.w3.org/Graphics/SVG/1.1/DTD/svg11.dtd">
<svg version="1.1" id="Layer_1" xmlns="http://www.w3.org/2000/svg" xmlns:xlink="http://www.w3.org/1999/xlink" x="0px" y="0px"
	 width="110px" height="110px" viewBox="0 0 110 110" enable-background="new 0 0 110 110" xml:space="preserve">
<g>
	<path fill="#F89728" d="M104.92,67.529h-5.297V53.028l0.052-2.383l0.086-2.605c-0.88,0.881-1.492,1.459-1.836,1.73l-2.878,2.316
		l-2.554-3.189l8.073-6.426h4.354V67.529z"/>
	<path fill="#F89728" d="M55.397,105.318c-27.746,0-50.317-22.572-50.317-50.319c0-27.745,22.571-50.318,50.317-50.318
		c16.743,0,32.339,8.292,41.724,22.183c2.205,3.264,4.405,7.895,5.797,11.618l-3.532,0.09c-1.299-3.475-3-6.777-5.056-9.821
		C85.573,15.788,71.019,8.049,55.397,8.049c-25.888,0-46.949,21.062-46.949,46.95c0,25.89,21.062,46.95,46.949,46.95
		c19.491,0,37.167-12.266,43.99-30.523l3.53,0.01C95.607,91,76.286,105.318,55.397,105.318"/>
	<path fill="#F89728" d="M70.413,80.541c0,3.174-2.572,5.746-5.745,5.746H41.074c-3.172,0-5.744-2.572-5.744-5.746V29.458
		c0-3.174,2.572-5.745,5.744-5.745h23.594c3.173,0,5.745,2.571,5.745,5.745V80.541z"/>
	<rect x="39.434" y="29.663" fill="#FED2A2" width="26.876" height="48.828"/>
	<path fill="#FED2A2" d="M55.129,82.594c0,1.246-1.012,2.258-2.258,2.258s-2.255-1.012-2.255-2.258s1.009-2.256,2.255-2.256
		S55.129,81.348,55.129,82.594"/>
	<path fill="#FED2A2" d="M57.591,27.063c0,0.341-0.275,0.615-0.616,0.615h-8.207c-0.34,0-0.613-0.274-0.613-0.615
		c0-0.34,0.273-0.615,0.613-0.615h8.207C57.315,26.448,57.591,26.723,57.591,27.063"/>
	<path fill="#F89728" d="M60.5,48.858c0,4.215-3.416,7.63-7.629,7.63c-4.214,0-7.627-3.415-7.627-7.63
		c0-4.213,3.413-7.627,7.627-7.627C57.084,41.231,60.5,44.646,60.5,48.858"/>
	<path fill="#FFE7CD" d="M59.054,48.858c0,3.416-2.767,6.182-6.183,6.182c-3.412,0-6.182-2.766-6.182-6.182"/>
	<rect x="39.434" y="29.663" fill="#FFE7CD" width="26.876" height="4.7"/>
	<rect x="39.434" y="59.967" fill="#FFE7CD" width="26.876" height="18.535"/>
	<path fill="#F89728" d="M45.371,31.997c0,0.273-0.074,0.484-0.224,0.629c-0.147,0.146-0.362,0.219-0.644,0.219h-0.461v-1.664h0.512
		c0.258,0,0.458,0.072,0.603,0.217C45.301,31.538,45.371,31.739,45.371,31.997 M45.168,32.003c0-0.217-0.055-0.381-0.164-0.49
		c-0.109-0.111-0.271-0.164-0.486-0.164h-0.281v1.328h0.235c0.231,0,0.405-0.057,0.522-0.17
		C45.109,32.394,45.168,32.226,45.168,32.003"/>
	<path fill="#F89728" d="M45.9,32.151v0.693h-0.191v-1.664h0.455c0.205,0,0.355,0.039,0.453,0.117s0.147,0.195,0.147,0.354
		c0,0.219-0.112,0.367-0.336,0.445l0.452,0.748h-0.229l-0.402-0.693H45.9z M45.9,31.985h0.268c0.136,0,0.236-0.025,0.299-0.08
		c0.064-0.055,0.098-0.137,0.098-0.244c0-0.111-0.033-0.189-0.098-0.238c-0.066-0.047-0.17-0.074-0.314-0.074H45.9V31.985z"/>
	<rect x="47.114" y="31.181" fill="#F89728" width="0.194" height="1.664"/>
	<path fill="#F89728" d="M48.681,31.181h0.208l-0.6,1.664h-0.191L47.5,31.181h0.205l0.384,1.076
		c0.044,0.123,0.079,0.244,0.104,0.361c0.026-0.123,0.063-0.246,0.107-0.369L48.681,31.181z"/>
	<polygon fill="#F89728" points="50.011,32.845 49.082,32.845 49.082,31.181 50.011,31.181 50.011,31.353 49.275,31.353 
		49.275,31.888 49.967,31.888 49.967,32.06 49.275,32.06 49.275,32.671 50.011,32.671 	"/>
	<path fill="#F89728" d="M51.961,32.845l-0.207-0.529h-0.668l-0.203,0.529h-0.195l0.656-1.672h0.164l0.652,1.672H51.961z
		 M51.693,32.14l-0.191-0.516c-0.027-0.064-0.054-0.145-0.078-0.238c-0.019,0.072-0.041,0.15-0.072,0.238l-0.196,0.516H51.693z"/>
	<path fill="#F89728" d="M53.656,32.845h-0.222l-0.909-1.396h-0.01c0.014,0.164,0.018,0.313,0.018,0.451v0.945h-0.176v-1.664h0.217
		l0.908,1.393h0.008c-0.002-0.021-0.004-0.088-0.008-0.199c-0.007-0.111-0.01-0.191-0.008-0.238v-0.955h0.182V32.845z"/>
	<path fill="#F89728" d="M55.407,31.997c0,0.273-0.074,0.484-0.224,0.629c-0.15,0.146-0.364,0.219-0.645,0.219h-0.461v-1.664h0.512
		c0.257,0,0.459,0.072,0.602,0.217C55.337,31.538,55.407,31.739,55.407,31.997 M55.201,32.003c0-0.217-0.054-0.381-0.162-0.49
		c-0.108-0.111-0.271-0.164-0.485-0.164h-0.281v1.328h0.235c0.231,0,0.404-0.057,0.52-0.17
		C55.144,32.394,55.201,32.226,55.201,32.003"/>
	<path fill="#F89728" d="M57.027,31.329c-0.183,0-0.328,0.063-0.433,0.184c-0.107,0.123-0.159,0.289-0.159,0.5
		c0,0.219,0.05,0.385,0.152,0.504s0.248,0.18,0.437,0.18c0.116,0,0.25-0.021,0.397-0.063v0.17c-0.115,0.043-0.259,0.064-0.428,0.064
		c-0.243,0-0.433-0.076-0.567-0.225c-0.132-0.148-0.198-0.359-0.198-0.633c0-0.172,0.031-0.322,0.096-0.451
		c0.065-0.129,0.157-0.229,0.279-0.299c0.119-0.07,0.261-0.104,0.427-0.104c0.174,0,0.326,0.031,0.455,0.096l-0.082,0.164
		C57.278,31.36,57.152,31.329,57.027,31.329"/>
	<path fill="#F89728" d="M58.797,32.845l-0.207-0.529h-0.668l-0.205,0.529h-0.195l0.658-1.672h0.163l0.653,1.672H58.797z
		 M58.528,32.14l-0.193-0.516c-0.025-0.064-0.051-0.145-0.076-0.238c-0.018,0.072-0.041,0.15-0.072,0.238l-0.195,0.516H58.528z"/>
	<path fill="#F89728" d="M60.131,32.401c0,0.146-0.055,0.262-0.162,0.344c-0.104,0.082-0.248,0.123-0.43,0.123
		c-0.198,0-0.351-0.025-0.456-0.076v-0.188c0.067,0.029,0.142,0.051,0.224,0.068c0.079,0.016,0.159,0.025,0.238,0.025
		c0.128,0,0.227-0.025,0.292-0.072c0.065-0.051,0.098-0.119,0.098-0.205c0-0.059-0.013-0.105-0.036-0.143
		c-0.022-0.037-0.061-0.07-0.114-0.102c-0.055-0.031-0.138-0.068-0.249-0.107c-0.154-0.055-0.265-0.121-0.332-0.195
		c-0.066-0.076-0.099-0.176-0.099-0.297c0-0.129,0.05-0.23,0.145-0.307c0.096-0.076,0.224-0.113,0.383-0.113
		c0.165,0,0.318,0.029,0.456,0.09l-0.061,0.17c-0.137-0.059-0.271-0.088-0.399-0.088c-0.103,0-0.183,0.021-0.241,0.066
		c-0.059,0.043-0.087,0.105-0.087,0.184c0,0.057,0.012,0.104,0.032,0.141s0.059,0.072,0.107,0.102
		c0.052,0.031,0.127,0.064,0.23,0.102c0.176,0.063,0.296,0.129,0.362,0.203C60.098,32.194,60.131,32.288,60.131,32.401"/>
	<polygon fill="#F89728" points="61.699,32.845 61.506,32.845 61.506,32.062 60.629,32.062 60.629,32.845 60.437,32.845 
		60.437,31.181 60.629,31.181 60.629,31.888 61.506,31.888 61.506,31.181 61.699,31.181 	"/>
	<circle fill="none" stroke="#F89728" stroke-miterlimit="10" cx="52.872" cy="68.184" r="4.428"/>
	<path fill-rule="evenodd" clip-rule="evenodd" fill="#F89728" d="M54.728,68.746l-0.725-0.371
		c-0.177-0.092-0.407-0.061-0.554,0.074l-0.086,0.078c-0.082,0.074-0.207,0.092-0.309,0.041c-0.246-0.127-0.443-0.324-0.572-0.572
		c-0.053-0.1-0.035-0.225,0.043-0.309l0.078-0.084c0.082-0.092,0.129-0.209,0.129-0.33c0-0.078-0.02-0.156-0.056-0.227l-0.373-0.723
		c-0.118-0.232-0.356-0.379-0.62-0.379c-0.156,0-0.301,0.051-0.425,0.143l-0.22,0.17c-0.346,0.262-0.489,0.719-0.355,1.131
		c0.447,1.379,1.529,2.486,2.896,2.973c0.109,0.037,0.225,0.057,0.342,0.057c0.275,0,0.541-0.109,0.732-0.305l0.253-0.254
		c0.13-0.133,0.2-0.307,0.2-0.49C55.107,69.105,54.963,68.865,54.728,68.746 M54.607,69.564l-0.253,0.256
		c-0.161,0.164-0.417,0.223-0.635,0.143c-1.243-0.438-2.229-1.449-2.636-2.703c-0.08-0.244,0.004-0.514,0.21-0.672l0.22-0.166
		c0.049-0.039,0.107-0.057,0.17-0.057c0.105,0,0.2,0.057,0.248,0.152l0.372,0.725c0.007,0.008,0.009,0.02,0.009,0.031
		c0,0.02-0.011,0.037-0.019,0.047l-0.078,0.084c-0.194,0.213-0.237,0.527-0.106,0.785c0.168,0.324,0.428,0.584,0.754,0.752
		c0.252,0.131,0.576,0.086,0.785-0.107l0.084-0.076c0.014-0.012,0.049-0.027,0.08-0.012l0.725,0.373
		c0.094,0.049,0.151,0.143,0.151,0.25C54.688,69.441,54.661,69.512,54.607,69.564"/>
</g>
</svg>
