<?xml version="1.0" encoding="utf-8"?>
<!-- Generator: Adobe Illustrator 15.1.0, SVG Export Plug-In . SVG Version: 6.00 Build 0)  -->
<!DOCTYPE svg PUBLIC "-//W3C//DTD SVG 1.1//EN" "http://www.w3.org/Graphics/SVG/1.1/DTD/svg11.dtd">
<svg version="1.1" id="Layer_1" xmlns="http://www.w3.org/2000/svg" xmlns:xlink="http://www.w3.org/1999/xlink" x="0px" y="0px"
	 width="110px" height="110px" viewBox="0 0 110 110" enable-background="new 0 0 110 110" xml:space="preserve">
<g>
	<path fill="#F89728" d="M107.5,67.529H90.231v-3.631l6.204-6.27c1.835-1.879,3.034-3.186,3.597-3.912s0.97-1.398,1.218-2.02
		c0.249-0.619,0.37-1.262,0.37-1.926c0-0.992-0.272-1.729-0.818-2.213s-1.276-0.727-2.188-0.727c-0.959,0-1.886,0.219-2.788,0.658
		s-1.842,1.064-2.821,1.877l-2.841-3.363c1.219-1.036,2.226-1.77,3.026-2.197c0.799-0.427,1.672-0.758,2.618-0.988
		s2.005-0.347,3.176-0.347c1.542,0,2.906,0.283,4.09,0.845c1.184,0.563,2.101,1.353,2.755,2.365
		c0.653,1.014,0.979,2.176,0.979,3.482c0,1.137-0.2,2.203-0.601,3.201c-0.398,0.996-1.019,2.02-1.858,3.066
		c-0.839,1.049-2.318,2.541-4.435,4.477L96.737,62.9v0.236H107.5V67.529z"/>
	<path fill="#F89728" d="M52.818,105.318c-27.745,0-50.317-22.572-50.317-50.316c0-27.747,22.572-50.32,50.317-50.32
		c16.743,0,32.339,8.293,41.724,22.183c2.205,3.264,4.406,7.895,5.797,11.617l-3.532,0.09c-1.299-3.475-2.999-6.778-5.056-9.821
		C82.995,15.789,68.439,8.05,52.818,8.05C26.931,8.05,5.87,29.111,5.87,55.002c0,25.887,21.061,46.947,46.948,46.947
		c19.491,0,37.168-12.266,43.99-30.521l3.53,0.008C93.028,91.002,73.707,105.318,52.818,105.318"/>
	<path fill-rule="evenodd" clip-rule="evenodd" fill="#FAAA54" d="M25.923,52.641l7.133-15.06
		c2.132-4.503,10.843-5.069,16.877-5.069s14.72,0.51,16.879,5.069l7.132,15.06H25.923z"/>
	<path fill-rule="evenodd" clip-rule="evenodd" fill="#FFE7CD" d="M27.979,52.322L34.5,38.551c1.951-4.117,9.916-4.637,15.435-4.637
		c5.518,0,13.456,0.468,15.432,4.637l6.521,13.771H27.979z"/>
	<path fill-rule="evenodd" clip-rule="evenodd" fill="#F89728" d="M25.071,66.42h6.943c0.83,0,1.509,0.768,1.509,1.701v5.438
		c0,0.934-0.679,1.699-1.509,1.699h-6.943c-0.829,0-1.508-0.766-1.508-1.699v-5.438C23.563,67.188,24.242,66.42,25.071,66.42"/>
	<path fill-rule="evenodd" clip-rule="evenodd" fill="#F89728" d="M67.875,66.42h6.942c0.831,0,1.51,0.768,1.51,1.701v5.438
		c0,0.934-0.679,1.699-1.51,1.699h-6.942c-0.828,0-1.508-0.766-1.508-1.699v-5.438C66.367,67.188,67.047,66.42,67.875,66.42"/>
	<path fill-rule="evenodd" clip-rule="evenodd" fill="#F89728" d="M25.578,41.283h-3.414c-0.858,0-1.562,0.746-1.562,1.66v1.246
		c0,0.914,0.703,1.66,1.562,1.66h2.254l4.272,2.109l0.412-0.942l-3.524-1.739V41.283z M74.293,41.283h3.415
		c0.858,0,1.56,0.746,1.56,1.66v1.246c0,0.914-0.701,1.66-1.56,1.66h-2.255l-4.273,2.109l-0.41-0.942l3.523-1.739V41.283z"/>
	<path fill-rule="evenodd" clip-rule="evenodd" fill="#FAAA54" d="M24.535,68.211h51.491c2.518,0,4.242-1.859,4.242-4.137V53.982
		c0-11.973-60.647-12.591-60.647,0v10.092C19.621,66.35,22.017,68.211,24.535,68.211"/>
	<path fill-rule="evenodd" clip-rule="evenodd" fill="#F89728" d="M80.268,56.684v-2.701c0-12.324-60.646-13-60.646,0v2.701
		c0,1.133,2.062,2.063,4.579,2.063h51.491C78.207,58.746,80.268,57.816,80.268,56.684"/>
	<polygon fill-rule="evenodd" clip-rule="evenodd" fill="#FAAA54" points="69.872,46.707 63.057,54.813 67.629,58.744 	"/>
	<polygon fill-rule="evenodd" clip-rule="evenodd" fill="#FAAA54" points="29.858,46.563 36.952,54.811 32.38,58.746 	"/>
	<path fill-rule="evenodd" clip-rule="evenodd" fill="#FAAA54" d="M80.178,62.885c-0.426-1.885-2.281-3.313-4.487-3.313h-8.055
		v-0.625c0-2.275-2.061-4.137-4.579-4.137H36.952c-2.518,0-4.576,1.861-4.576,4.137v0.625H24.2c-2.207,0-4.062,1.428-4.487,3.313
		c0.426,1.5,2.28,2.637,4.487,2.637h9.972H65.72h9.971C77.896,65.521,79.752,64.385,80.178,62.885"/>
	<path fill-rule="evenodd" clip-rule="evenodd" fill="#FAAA54" d="M25.017,68.211h9.721h30.752h9.72
		c2.454,0,4.462-1.859,4.462-4.137v-0.42c0-2.275-2.008-4.135-4.462-4.135h-9.72v-0.627c0-2.275-2.01-4.137-4.464-4.137H39.199
		c-2.454,0-4.462,1.861-4.462,4.137v0.627h-9.721c-2.453,0-4.463,1.859-4.463,4.135v0.42C20.554,66.352,22.563,68.211,25.017,68.211
		"/>
	<path fill-rule="evenodd" clip-rule="evenodd" fill="#FAAA54" d="M79.289,65.293c-0.412-2.086-2.214-3.666-4.354-3.666h-9.68
		v-0.691c0-2.52-2-4.58-4.444-4.58H39.079c-2.444,0-4.443,2.061-4.443,4.58v0.691h-9.68c-2.144,0-3.941,1.58-4.356,3.666
		c0.415,1.66,2.213,2.918,4.356,2.918h9.68h30.62h9.68C77.075,68.211,78.877,66.953,79.289,65.293"/>
	<path fill-rule="evenodd" clip-rule="evenodd" fill="#FED2A2" d="M40.147,56.078h19.399c1.281,0,2.33,1.049,2.33,2.33v4.162
		c0,1.281-1.049,2.33-2.33,2.33H40.147c-1.283,0-2.332-1.049-2.332-2.33v-4.162C37.815,57.127,38.864,56.078,40.147,56.078"/>
	<rect x="36.772" y="58.188" fill-rule="evenodd" clip-rule="evenodd" fill="#FAAA54" width="26.606" height="1.131"/>
	<rect x="36.772" y="61.66" fill-rule="evenodd" clip-rule="evenodd" fill="#FAAA54" width="26.606" height="1.133"/>
	<rect x="53.873" y="54.811" fill-rule="evenodd" clip-rule="evenodd" fill="#FAAA54" width="1.133" height="10.09"/>
	<rect x="44.688" y="54.811" fill-rule="evenodd" clip-rule="evenodd" fill="#FAAA54" width="1.134" height="10.09"/>
	<path fill-rule="evenodd" clip-rule="evenodd" fill="#F89728" d="M78.709,53.111c1.074,3.502-8.391,7.516-9.776,2.994
		C67.548,51.587,77.635,49.607,78.709,53.111"/>
	<path fill-rule="evenodd" clip-rule="evenodd" fill="#FFE7CD" d="M71.017,53.17c1.161-0.354,2.39,0.297,2.745,1.457
		s-0.298,2.391-1.457,2.744c-1.16,0.355-2.388-0.297-2.743-1.457C69.205,54.754,69.857,53.525,71.017,53.17"/>
	<path fill-rule="evenodd" clip-rule="evenodd" fill="#F7CE79" d="M76.391,52.309c0.763-0.234,1.571,0.193,1.806,0.959
		s-0.194,1.572-0.959,1.809c-0.765,0.232-1.573-0.197-1.807-0.959C75.198,53.352,75.627,52.542,76.391,52.309"/>
	<path fill-rule="evenodd" clip-rule="evenodd" fill="#F89728" d="M20.704,53.111c-1.074,3.502,8.391,7.516,9.776,2.994
		C31.866,51.587,21.778,49.607,20.704,53.111"/>
	<path fill-rule="evenodd" clip-rule="evenodd" fill="#FFE7CD" d="M28.396,53.17c-1.16-0.354-2.389,0.297-2.744,1.457
		c-0.354,1.16,0.297,2.391,1.457,2.744c1.16,0.355,2.389-0.297,2.744-1.457C30.209,54.754,29.556,53.525,28.396,53.17"/>
	<path fill-rule="evenodd" clip-rule="evenodd" fill="#F7CE79" d="M23.024,52.309c-0.764-0.234-1.574,0.193-1.809,0.959
		c-0.232,0.766,0.196,1.572,0.959,1.809c0.766,0.232,1.574-0.197,1.807-0.959C24.218,53.352,23.789,52.542,23.024,52.309"/>
</g>
</svg>
