<?xml version="1.0" encoding="utf-8"?>
<!-- Generator: Adobe Illustrator 15.1.0, SVG Export Plug-In . SVG Version: 6.00 Build 0)  -->
<!DOCTYPE svg PUBLIC "-//W3C//DTD SVG 1.1//EN" "http://www.w3.org/Graphics/SVG/1.1/DTD/svg11.dtd">
<svg version="1.1" id="Layer_1" xmlns="http://www.w3.org/2000/svg" xmlns:xlink="http://www.w3.org/1999/xlink" x="0px" y="0px"
	 width="110px" height="110px" viewBox="0 0 110 110" enable-background="new 0 0 110 110" xml:space="preserve">
<g>
	<path fill="#F89728" d="M71.549,79.588c0,1.51-1.226,2.734-2.733,2.734H37.545c-1.511,0-2.733-1.225-2.733-2.734V30.037
		c0-1.511,1.223-2.734,2.733-2.734h31.271c1.508,0,2.733,1.224,2.733,2.734V79.588z"/>
	<rect x="38.229" y="30.464" fill="#FFE7CD" width="29.901" height="48.696"/>
	<path fill="#FAAA54" d="M65.714,45.778c0,0.374-0.304,0.677-0.677,0.677H41.322c-0.375,0-0.677-0.303-0.677-0.677
		c0-0.373,0.302-0.676,0.677-0.676h23.715C65.41,45.102,65.714,45.405,65.714,45.778"/>
	<path fill="#FAAA54" d="M65.714,48.628c0,0.373-0.304,0.676-0.677,0.676H41.322c-0.375,0-0.677-0.303-0.677-0.676
		c0-0.372,0.302-0.676,0.677-0.676h23.715C65.41,47.953,65.714,48.256,65.714,48.628"/>
	<path fill="#FAAA54" d="M65.714,51.478c0,0.374-0.304,0.676-0.677,0.676H41.322c-0.375,0-0.677-0.302-0.677-0.676
		c0-0.373,0.302-0.675,0.677-0.675h23.715C65.41,50.803,65.714,51.105,65.714,51.478"/>
	<path fill="#FAAA54" d="M65.714,54.329c0,0.373-0.304,0.676-0.677,0.676H41.322c-0.375,0-0.677-0.303-0.677-0.676
		s0.302-0.676,0.677-0.676h23.715C65.41,53.653,65.714,53.956,65.714,54.329"/>
	<path fill="#FAAA54" d="M65.714,57.18c0,0.373-0.304,0.676-0.677,0.676H41.322c-0.375,0-0.677-0.303-0.677-0.676
		s0.302-0.676,0.677-0.676h23.715C65.41,56.504,65.714,56.807,65.714,57.18"/>
	<path fill="#FAAA54" d="M65.714,60.029c0,0.373-0.304,0.676-0.677,0.676H41.322c-0.375,0-0.677-0.303-0.677-0.676
		s0.302-0.676,0.677-0.676h23.715C65.41,59.354,65.714,59.656,65.714,60.029"/>
	<path fill="#FAAA54" d="M65.714,62.879c0,0.373-0.304,0.676-0.677,0.676H41.322c-0.375,0-0.677-0.303-0.677-0.676
		s0.302-0.676,0.677-0.676h23.715C65.41,62.203,65.714,62.506,65.714,62.879"/>
	<path fill="#FAAA54" d="M65.714,65.729c0,0.373-0.304,0.676-0.677,0.676H41.322c-0.375,0-0.677-0.303-0.677-0.676
		s0.302-0.676,0.677-0.676h23.715C65.41,65.053,65.714,65.355,65.714,65.729"/>
	<path fill="#FAAA54" d="M65.714,68.58c0,0.373-0.304,0.676-0.677,0.676H41.322c-0.375,0-0.677-0.303-0.677-0.676
		s0.302-0.678,0.677-0.678h23.715C65.41,67.902,65.714,68.207,65.714,68.58"/>
	<path fill="#FAAA54" d="M65.714,71.43c0,0.373-0.304,0.674-0.677,0.674H41.322c-0.375,0-0.677-0.301-0.677-0.674
		c0-0.375,0.302-0.676,0.677-0.676h23.715C65.41,70.754,65.714,71.055,65.714,71.43"/>
	<path fill="#FAAA54" d="M65.714,74.279c0,0.375-0.304,0.676-0.677,0.676H41.322c-0.375,0-0.677-0.301-0.677-0.676
		c0-0.373,0.302-0.676,0.677-0.676h23.715C65.41,73.604,65.714,73.906,65.714,74.279"/>
	<path fill="#FED2A2" d="M65.714,40.844c0,0.755-0.612,1.367-1.367,1.367h-4.503c-0.755,0-1.366-0.612-1.366-1.367v-3.39
		c0-0.755,0.611-1.366,1.366-1.366h4.503c0.755,0,1.367,0.611,1.367,1.366V40.844z"/>
	<path fill="#FAAA54" d="M56.378,37.844c0,0.674-0.565,1.221-1.268,1.221H41.913c-0.699,0-1.268-0.547-1.268-1.221
		c0-0.675,0.568-1.221,1.268-1.221H55.11C55.813,36.624,56.378,37.169,56.378,37.844"/>
	<path fill="#FAAA54" d="M56.378,41.749c0,0.675-0.565,1.223-1.268,1.223H41.913c-0.699,0-1.268-0.548-1.268-1.223
		c0-0.674,0.568-1.22,1.268-1.22H55.11C55.813,40.529,56.378,41.075,56.378,41.749"/>
	<path fill="#FED2A2" d="M63.021,32.349c0,0.455-0.69,0.824-1.544,0.824H44.883c-0.854,0-1.545-0.369-1.545-0.824v-2.86
		c0-0.455,0.69-0.826,1.545-0.826h16.594c0.854,0,1.544,0.371,1.544,0.826V32.349z"/>
	<path fill="#FED2A2" d="M60.149,28.253c0,1.106-0.98,2.003-2.188,2.003h-9.564c-1.208,0-2.185-0.896-2.185-2.003V26.79
		c0-1.105,0.977-2.002,2.185-2.002h9.564c1.208,0,2.188,0.896,2.188,2.002V28.253z"/>
	<path fill="#F89728" d="M106.424,48.218c0,1.515-0.457,2.804-1.376,3.864c-0.918,1.063-2.206,1.792-3.866,2.19v0.099
		c1.959,0.243,3.439,0.837,4.446,1.785c1.006,0.945,1.51,2.219,1.51,3.822c0,2.332-0.847,4.148-2.538,5.447
		c-1.691,1.301-4.107,1.949-7.248,1.949c-2.632,0-4.964-0.436-6.998-1.309v-4.363c0.939,0.475,1.975,0.863,3.103,1.162
		c1.128,0.297,2.243,0.447,3.35,0.447c1.691,0,2.941-0.287,3.746-0.863c0.808-0.574,1.211-1.498,1.211-2.77
		c0-1.139-0.464-1.945-1.391-2.422c-0.93-0.475-2.411-0.713-4.446-0.713h-1.84v-3.931h1.875c1.878,0,3.251-0.246,4.12-0.738
		c0.868-0.492,1.302-1.335,1.302-2.529c0-1.835-1.149-2.754-3.45-2.754c-0.797,0-1.605,0.133-2.429,0.398
		c-0.825,0.266-1.739,0.725-2.746,1.377l-2.371-3.533c2.212-1.592,4.849-2.389,7.911-2.389c2.509,0,4.491,0.51,5.945,1.526
		C105.697,44.991,106.424,46.405,106.424,48.218"/>
	<path fill="#F89728" d="M53.179,105.318C25.433,105.318,2.862,82.746,2.862,55c0-27.745,22.57-50.317,50.316-50.317
		c16.743,0,32.34,8.292,41.725,22.183c2.205,3.265,4.406,7.896,5.797,11.618l-3.533,0.089c-1.299-3.474-2.999-6.778-5.055-9.821
		C83.356,15.79,68.8,8.049,53.179,8.049C27.292,8.049,6.229,29.112,6.229,55c0,25.889,21.063,46.95,46.949,46.95
		c19.491,0,37.169-12.266,43.99-30.521l3.531,0.008C93.39,91.002,74.068,105.318,53.179,105.318"/>
</g>
</svg>
