<?xml version="1.0" encoding="utf-8"?>
<!-- Generator: Adobe Illustrator 15.1.0, SVG Export Plug-In . SVG Version: 6.00 Build 0)  -->
<!DOCTYPE svg PUBLIC "-//W3C//DTD SVG 1.1//EN" "http://www.w3.org/Graphics/SVG/1.1/DTD/svg11.dtd">
<svg version="1.1" id="Layer_1" xmlns="http://www.w3.org/2000/svg" xmlns:xlink="http://www.w3.org/1999/xlink" x="0px" y="0px"
	 width="110px" height="110px" viewBox="0 0 110 110" enable-background="new 0 0 110 110" xml:space="preserve">
<g>
	<path fill="#F89728" d="M65.729,66.41c0.001,0.93-0.734,1.889-1.645,2.139l-32.543,9.018c-0.91,0.252-1.646-0.299-1.646-1.229
		l-0.016-28.512c0-0.931,0.734-1.89,1.645-2.141l32.545-9.018c0.907-0.251,1.646,0.298,1.646,1.229L65.729,66.41z"/>
	<path fill="#FED2A2" d="M62.643,67.055c0,0.781-0.618,1.588-1.383,1.799l-27.352,7.58c-0.766,0.209-1.385-0.252-1.385-1.033
		l-0.011-23.966c-0.002-0.781,0.618-1.587,1.381-1.798l27.354-7.58c0.763-0.212,1.383,0.251,1.383,1.033L62.643,67.055z"/>
	<rect x="42.069" y="29.757" fill="#FFE7CD" width="17.765" height="41.188"/>
	<path fill="#FED2A2" d="M42.877,69.73l16.15-0.002l-0.002-38.995l-16.152,0.001L42.877,69.73z M43.895,31.71
		c-0.014,0.01-0.029,0.019-0.044,0.029V31.71H43.895z M53.361,33.163c0,1.073,1.223,1.94,2.733,1.94
		c0.767,0,1.459-0.225,1.956-0.586l0.001,31.43c-0.496-0.363-1.188-0.588-1.955-0.588c-1.509,0-2.732,0.869-2.732,1.941
		c0,0.58,0.357,1.098,0.924,1.451l-6.776,0.002c0.566-0.355,0.926-0.873,0.924-1.453c0.002-1.072-1.223-1.941-2.732-1.941
		c-0.715,0.002-1.362,0.199-1.851,0.518l-0.002-31.288c0.487,0.318,1.138,0.516,1.853,0.516c1.51,0,2.731-0.869,2.731-1.941
		c0-0.579-0.358-1.098-0.925-1.453h6.776C53.72,32.066,53.361,32.584,53.361,33.163 M43.853,68.727
		c0.015,0.01,0.029,0.02,0.044,0.027h-0.044V68.727z M57.904,68.752c0.052-0.031,0.101-0.063,0.147-0.098v0.098H57.904z
		 M58.051,31.808c-0.048-0.033-0.097-0.066-0.148-0.098h0.148V31.808z"/>
	<path fill="#FFE7CD" d="M50.997,45.976c2.899,0,5.251,1.906,5.253,4.257c0,2.348-2.354,4.253-5.253,4.253
		c-2.903,0-5.255-1.903-5.251-4.252C45.744,47.882,48.094,45.976,50.997,45.976"/>
	<path fill="#FFE7CD" d="M51.053,58.723c0.988,0,1.791,0.801,1.79,1.789c0.001,0.99-0.802,1.789-1.79,1.791
		c-0.986,0-1.788-0.801-1.788-1.791C49.265,59.523,50.066,58.723,51.053,58.723"/>
	<path fill="#FFE7CD" d="M51.051,38.618c0.988,0,1.791,0.801,1.791,1.79c0,0.987-0.803,1.789-1.791,1.789
		c-0.986,0-1.787-0.802-1.785-1.79C49.264,39.418,50.064,38.618,51.051,38.618"/>
	<path fill="#FFE7CD" d="M58.378,50.231c0,3.36-3.312,6.093-7.381,6.093c-4.071,0-7.383-2.733-7.383-6.091
		c0-3.36,3.312-6.094,7.383-6.094C55.066,44.139,58.378,46.873,58.378,50.231 M44.807,50.233c0,2.702,2.775,4.899,6.19,4.899
		c3.413,0,6.188-2.199,6.188-4.901s-2.775-4.899-6.188-4.899C47.582,45.332,44.807,47.53,44.807,50.233"/>
	<path fill="#FFE7CD" d="M57.931,50.352c0,3.112-3.109,5.646-6.934,5.646c-3.825,0-6.937-2.533-6.937-5.646
		c0-3.114,3.111-5.646,6.937-5.646C54.821,44.706,57.931,47.238,57.931,50.352 M44.359,50.353c0.002,2.947,2.979,5.346,6.638,5.346
		s6.636-2.399,6.634-5.347c0-2.949-2.975-5.348-6.634-5.349C47.336,45.004,44.359,47.404,44.359,50.353"/>
	<rect x="38.925" y="32.164" fill="#FFE7CD" width="17.762" height="41.188"/>
	<path fill="#FED2A2" d="M39.73,72.137h16.151L55.88,33.141l-16.151,0.001L39.73,72.137z M40.749,34.118
		c-0.015,0.011-0.03,0.02-0.044,0.028v-0.028H40.749z M50.216,35.569c0,1.073,1.224,1.942,2.733,1.942
		c0.767,0,1.459-0.225,1.956-0.587l0.001,31.429c-0.496-0.361-1.188-0.588-1.955-0.588c-1.508,0.002-2.732,0.871-2.732,1.943
		c0,0.578,0.359,1.098,0.924,1.451h-6.775c0.565-0.354,0.925-0.873,0.925-1.451c0-1.072-1.224-1.941-2.734-1.941
		c-0.714,0-1.362,0.197-1.852,0.516l-0.001-31.288c0.486,0.319,1.136,0.516,1.851,0.516c1.513,0,2.734-0.869,2.734-1.94
		c0-0.58-0.36-1.097-0.927-1.453l6.778-0.001C50.576,34.474,50.216,34.991,50.216,35.569 M40.706,71.133
		c0.015,0.01,0.03,0.02,0.045,0.027h-0.043L40.706,71.133z M54.759,71.16c0.05-0.031,0.102-0.064,0.147-0.098v0.098H54.759z
		 M54.905,34.215c-0.049-0.033-0.098-0.066-0.148-0.099h0.148V34.215z"/>
	<path fill="#FFE7CD" d="M47.851,48.384c2.901,0,5.253,1.904,5.255,4.256c0,2.348-2.354,4.254-5.255,4.254
		c-2.903,0-5.253-1.906-5.251-4.253C42.6,50.29,44.947,48.384,47.851,48.384"/>
	<path fill="#FFE7CD" d="M47.906,61.129c0.988,0,1.793,0.803,1.791,1.791c0,0.988-0.803,1.789-1.791,1.789
		c-0.986,0-1.787-0.801-1.787-1.789S46.92,61.129,47.906,61.129"/>
	<path fill="#FFE7CD" d="M47.906,41.025c0.988,0,1.791,0.801,1.791,1.79c0,0.987-0.803,1.788-1.791,1.788s-1.787-0.801-1.787-1.789
		C46.115,41.826,46.92,41.025,47.906,41.025"/>
	<path fill="#FFE7CD" d="M55.233,52.64c0,3.357-3.312,6.09-7.382,6.092c-4.07,0-7.384-2.733-7.384-6.092
		c0-3.36,3.313-6.094,7.383-6.094C51.922,46.546,55.233,49.279,55.233,52.64 M41.662,52.64c0,2.701,2.775,4.901,6.188,4.899
		c3.415,0,6.19-2.198,6.19-4.899c0-2.704-2.775-4.901-6.19-4.901S41.662,49.937,41.662,52.64"/>
	<path fill="#FFE7CD" d="M54.786,52.759c0,3.111-3.11,5.645-6.935,5.645s-6.935-2.532-6.935-5.644c0-3.114,3.11-5.646,6.935-5.646
		C51.674,47.114,54.786,49.645,54.786,52.759 M41.213,52.76c0.001,2.947,2.979,5.345,6.639,5.345c3.658,0,6.637-2.398,6.636-5.346
		c0-2.949-2.978-5.349-6.636-5.349C44.191,47.411,41.213,49.811,41.213,52.76"/>
	<path fill="#F89728" d="M72.022,77.693c0,0.975-0.869,1.768-1.938,1.768H31.816c-1.07,0-1.936-0.793-1.936-1.768V47.75
		c0-0.977,0.865-1.769,1.936-1.769h38.269c1.068,0,1.938,0.792,1.938,1.769V77.693z"/>
	<path fill="none" stroke="#FAAA54" stroke-width="0.75" stroke-linecap="round" stroke-miterlimit="10" stroke-dasharray="4,6" d="
		M69.352,75.795c0,0.854-0.757,1.547-1.689,1.547H34.24c-0.935,0-1.691-0.693-1.691-1.547V49.647c0-0.853,0.757-1.545,1.691-1.545
		h33.422c0.933,0,1.689,0.692,1.689,1.545V75.795z"/>
	<path fill="#FED2A2" d="M72.891,63.285c0,0.979-0.974,1.77-2.176,1.77h-9.98c-1.202,0-2.176-0.791-2.176-1.77v-3.863
		c0-0.977,0.974-1.77,2.176-1.77h9.98c1.202,0,2.176,0.793,2.176,1.77V63.285z"/>
	<path fill="#F89728" d="M107.66,62.324h-3.013v5.191h-5.174v-5.191H88.784v-3.682l10.98-16.17h4.883v15.743h3.013V62.324z
		 M99.474,58.215v-4.249c0-0.709,0.028-1.736,0.085-3.084c0.058-1.348,0.104-2.13,0.137-2.346h-0.137
		c-0.422,0.935-0.931,1.849-1.524,2.741l-4.591,6.937H99.474z"/>
	<path fill="#F89728" d="M52.656,105.318C24.91,105.318,2.34,82.746,2.34,55c0-27.746,22.57-50.318,50.316-50.318
		c16.743,0,32.339,8.293,41.724,22.183c2.205,3.264,4.406,7.896,5.797,11.618l-3.532,0.089c-1.299-3.474-3-6.778-5.056-9.821
		c-8.757-12.962-23.312-20.7-38.933-20.7C26.77,8.05,5.707,29.112,5.707,55c0,25.888,21.063,46.949,46.949,46.949
		c19.491,0,37.168-12.266,43.99-30.521l3.53,0.008C92.866,91.002,73.545,105.318,52.656,105.318"/>
</g>
</svg>
