<?xml version="1.0" encoding="utf-8"?>
<!-- Generator: Adobe Illustrator 15.1.0, SVG Export Plug-In . SVG Version: 6.00 Build 0)  -->
<!DOCTYPE svg PUBLIC "-//W3C//DTD SVG 1.1//EN" "http://www.w3.org/Graphics/SVG/1.1/DTD/svg11.dtd">
<svg version="1.1" id="Layer_1" xmlns="http://www.w3.org/2000/svg" xmlns:xlink="http://www.w3.org/1999/xlink" x="0px" y="0px"
	 width="100px" height="36px" viewBox="0 0 100 36" enable-background="new 0 0 100 36" xml:space="preserve">
<g>
	<path fill="#EB7E2C" d="M24.46,22.289c0,0-0.273,1.416,2.075,1.969c2.349,0.553,3.432,0.26,3.416,1.006
		c-0.018,0.746-2.377,0.988-3.693,0.988c-1.676,0.002-8.121-0.648-13.526,7.797h4.319c0.094-0.197,0.203-0.43,0.332-0.697
		c0.229-0.455,0.505-1.012,0.866-1.629c0.362-0.613,0.791-1.299,1.36-1.979c0.565-0.674,1.284-1.354,2.2-1.809
		c0.909-0.463,1.968-0.664,3.036-0.752c1.072-0.092,2.173-0.098,3.291-0.143c0.563-0.018,1.113-0.045,1.669-0.123
		c0.553-0.078,1.108-0.189,1.624-0.395c0.254-0.102,0.502-0.232,0.694-0.414c0.194-0.178,0.308-0.414,0.278-0.672
		c-0.018-0.25-0.169-0.48-0.369-0.658c-0.196-0.18-0.438-0.318-0.684-0.436c-0.497-0.23-1.03-0.377-1.562-0.494
		c-0.265-0.057-1.195-0.178-1.195-0.178c-0.136-0.014-0.27-0.027-0.404-0.049c-0.53-0.078-1.055-0.197-1.527-0.439
		c-0.231-0.125-0.456-0.287-0.597-0.525c-0.146-0.24-0.15-0.537-0.071-0.789c0.073-0.242,0.218-0.473,0.393-0.645
		c0.176-0.176,0.381-0.309,0.589-0.416c0.418-0.213,0.856-0.332,1.273-0.424c0.84-0.178,1.625-0.232,2.316-0.266
		c0.691-0.033,1.296-0.037,1.792-0.031c0.498,0.006,0.89,0.016,1.155,0.023c0.025,0.002,0.045,0.002,0.068,0.002l0.091-0.404
		C33.068,19.629,24.823,18.603,24.46,22.289"/>
	<path fill="#EB7E2C" d="M33.51,20.117c-0.267-0.004-0.657-0.008-1.156-0.006c-0.495,0.002-1.099,0.016-1.791,0.057
		c-0.689,0.047-1.471,0.115-2.301,0.299c-0.411,0.098-0.841,0.223-1.242,0.436c-0.4,0.209-0.781,0.535-0.912,1.008
		c-0.065,0.223-0.058,0.477,0.068,0.676c0.124,0.201,0.328,0.35,0.548,0.463c0.448,0.225,0.963,0.332,1.484,0.402
		c0.132,0.016,0.262,0.029,0.394,0.041c0,0,0.95,0.109,1.221,0.164c0.542,0.111,1.086,0.254,1.609,0.492
		c0.261,0.119,0.519,0.262,0.744,0.461c0.224,0.195,0.422,0.471,0.452,0.807c0.018,0.156-0.005,0.332-0.068,0.482
		c-0.063,0.154-0.165,0.287-0.276,0.395c-0.226,0.217-0.494,0.359-0.766,0.475c-0.544,0.225-1.113,0.344-1.679,0.432
		c-0.563,0.088-1.142,0.127-1.696,0.15c-1.119,0.061-2.222,0.084-3.271,0.188c-1.049,0.102-2.052,0.313-2.896,0.756
		c-0.846,0.438-1.509,1.08-2.044,1.732c-0.536,0.658-0.945,1.332-1.289,1.936c-0.345,0.605-0.608,1.16-0.829,1.609
		c-0.081,0.176-0.155,0.334-0.221,0.479h4.499c-0.213-1.623-0.274-5.631,4.242-5.723c5.668-0.113,7.807-0.338,8.175-2.57
		c0,0,0.372-2.125-2.952-2.615c-3.775-0.555-3.695-1.238-3.52-1.674c0.32-0.793,4.44-0.83,5.419-0.828l0.118-0.52
		C33.554,20.119,33.535,20.119,33.51,20.117"/>
	<path fill="#EB7E2C" d="M23.273,32.502v-0.68l-0.39-1.098h0.368l0.122,0.426c0.031,0.113,0.064,0.244,0.092,0.377h0.005
		c0.021-0.129,0.049-0.26,0.081-0.387l0.105-0.416h0.358l-0.398,1.084v0.693H23.273z"/>
	<path fill="#EB7E2C" d="M24.513,32.15c0.07,0.039,0.193,0.068,0.292,0.068c0.165,0,0.243-0.086,0.243-0.201
		c0-0.129-0.078-0.193-0.229-0.289c-0.243-0.148-0.334-0.338-0.334-0.496c0-0.285,0.188-0.523,0.56-0.523
		c0.116,0,0.227,0.033,0.28,0.063l-0.056,0.301c-0.051-0.033-0.126-0.061-0.227-0.061c-0.146,0-0.218,0.088-0.218,0.184
		c0,0.105,0.053,0.16,0.246,0.277c0.232,0.139,0.319,0.32,0.319,0.508c0,0.324-0.24,0.539-0.588,0.539
		c-0.141,0-0.282-0.039-0.338-0.072L24.513,32.15z"/>
	<rect x="25.589" y="30.727" fill="#EB7E2C" width="0.346" height="1.777"/>
	<path fill="#EB7E2C" d="M27.23,32.455c-0.075,0.031-0.24,0.063-0.37,0.063c-0.202,0-0.355-0.057-0.473-0.176
		c-0.154-0.148-0.235-0.412-0.231-0.719c0.009-0.645,0.377-0.914,0.755-0.914c0.135,0,0.234,0.027,0.289,0.055l-0.059,0.297
		c-0.052-0.025-0.117-0.039-0.204-0.039c-0.235,0-0.422,0.16-0.422,0.623c0,0.43,0.167,0.58,0.327,0.58
		c0.032,0,0.056-0.002,0.069-0.006v-0.43h-0.159v-0.283h0.478V32.455z"/>
	<path fill="#EB7E2C" d="M27.822,30.725v1.156c0,0.262,0.079,0.34,0.168,0.34c0.1,0,0.172-0.072,0.172-0.34v-1.156h0.344v1.096
		c0,0.457-0.17,0.703-0.513,0.703c-0.372,0-0.517-0.256-0.517-0.701v-1.098H27.822z"/>
	<polygon fill="#EB7E2C" points="29.556,31.721 29.15,31.721 29.15,32.201 29.609,32.201 29.609,32.504 28.805,32.504 
		28.805,30.727 29.578,30.727 29.578,31.025 29.15,31.025 29.15,31.436 29.556,31.436 	"/>
	<path fill="#EB7E2C" d="M31.348,31.879c-0.008-0.168-0.021-0.396-0.016-0.586h-0.009c-0.03,0.189-0.079,0.408-0.113,0.545
		l-0.151,0.635h-0.246l-0.147-0.623c-0.035-0.145-0.082-0.363-0.108-0.557h-0.008c-0.006,0.193-0.016,0.416-0.027,0.592
		l-0.028,0.617h-0.298l0.129-1.777h0.365l0.142,0.645c0.05,0.225,0.094,0.422,0.126,0.621h0.005
		c0.027-0.197,0.065-0.396,0.114-0.621l0.139-0.645h0.363l0.109,1.777H31.38L31.348,31.879z"/>
	<path fill="#EB7E2C" d="M32.223,32.096l-0.08,0.408h-0.334l0.383-1.777h0.416l0.345,1.777h-0.335l-0.076-0.408H32.223z
		 M32.51,31.828l-0.059-0.373c-0.018-0.107-0.042-0.285-0.058-0.402h-0.008c-0.017,0.117-0.043,0.303-0.062,0.406l-0.067,0.369
		H32.51z"/>
	<path fill="#EB7E2C" d="M33.147,32.502v-1.777h0.315l0.275,0.697c0.053,0.137,0.139,0.367,0.189,0.52h0.006
		c-0.012-0.186-0.035-0.496-0.035-0.822v-0.395h0.303v1.777h-0.315l-0.271-0.674c-0.059-0.15-0.14-0.375-0.18-0.535h-0.005
		c0.007,0.18,0.022,0.453,0.022,0.811v0.398H33.147z"/>
	<polygon fill="#EB7E2C" points="35.258,31.721 34.852,31.721 34.852,32.201 35.311,32.201 35.311,32.504 34.507,32.504 
		34.507,30.727 35.279,30.727 35.279,31.025 34.852,31.025 34.852,31.436 35.258,31.436 	"/>
	<path fill="#EB7E2C" d="M35.769,30.725h0.349v1.211c0,0.51-0.249,0.588-0.502,0.588c-0.071,0-0.133-0.01-0.175-0.027l0.03-0.289
		c0.035,0.012,0.068,0.014,0.113,0.014c0.101,0,0.186-0.039,0.186-0.27V30.725z"/>
	<path fill="#EB7E2C" d="M36.68,32.096l-0.079,0.408h-0.334l0.386-1.777h0.412l0.346,1.777h-0.334l-0.078-0.408H36.68z
		 M36.968,31.828l-0.059-0.373c-0.018-0.107-0.042-0.285-0.057-0.402h-0.01c-0.018,0.117-0.044,0.303-0.062,0.406l-0.066,0.369
		H36.968z"/>
	<path fill="#EB7E2C" d="M37.605,32.502v-1.777h0.316l0.275,0.697c0.051,0.137,0.138,0.367,0.188,0.52h0.006
		c-0.012-0.186-0.035-0.496-0.035-0.822v-0.395h0.304v1.777h-0.317l-0.271-0.674c-0.058-0.15-0.139-0.375-0.179-0.535h-0.005
		c0.007,0.18,0.021,0.453,0.021,0.811v0.398H37.605z"/>
	<path fill="#EB7E2C" d="M38.963,30.754c0.087-0.023,0.214-0.037,0.352-0.037c0.225,0,0.38,0.053,0.494,0.16
		c0.151,0.135,0.232,0.371,0.232,0.717c0,0.359-0.094,0.613-0.249,0.75c-0.119,0.117-0.294,0.172-0.543,0.172
		c-0.108,0-0.215-0.01-0.286-0.02V30.754z M39.309,32.23c0.018,0.002,0.043,0.002,0.062,0.002c0.167,0,0.312-0.162,0.312-0.652
		c0-0.363-0.096-0.584-0.304-0.584c-0.024,0-0.047,0-0.07,0.006V32.23z"/>
	<path fill="#EB7E2C" d="M41.307,31.584c0,0.668-0.237,0.939-0.575,0.939c-0.404,0-0.562-0.428-0.562-0.914s0.192-0.904,0.585-0.904
		C41.187,30.705,41.307,31.176,41.307,31.584 M40.529,31.613c0,0.404,0.076,0.609,0.216,0.609c0.145,0,0.201-0.264,0.201-0.623
		c0-0.313-0.048-0.594-0.203-0.594C40.605,31.006,40.529,31.232,40.529,31.613"/>
	<path fill="#1B4298" d="M8.327,20.055H0.149v1.764h7.454C7.798,21.191,8,20.656,8.178,20.316
		C8.228,20.223,8.278,20.137,8.327,20.055"/>
	<path fill="#1B4298" d="M7.342,22.729h-5.43v1.764h5.027c0.071-0.359,0.156-0.752,0.26-1.186
		C7.245,23.111,7.293,22.918,7.342,22.729"/>
	<path fill="#1B4298" d="M6.774,25.42H3.9v1.762h2.799c-0.023-0.156-0.036-0.316-0.036-0.482C6.664,26.338,6.701,25.92,6.774,25.42"
		/>
	<path fill="#F89728" d="M43.71,1.753l0.605-0.099l0.607-0.079c0.407-0.046,0.809-0.113,1.217-0.144l1.221-0.114l1.224-0.072
		c0.408-0.03,0.817-0.041,1.225-0.047c0.409-0.008,0.816-0.025,1.225-0.023c0.817,0.011,1.635,0.003,2.452,0.051l1.225,0.049
		l1.224,0.089c0.815,0.045,1.626,0.154,2.439,0.232c0.813,0.088,1.62,0.216,2.433,0.321l2.419,0.407l2.406,0.484l2.372,0.552
		c0.643,0.539,1.273,1.089,1.9,1.646l0.941,0.847l0.928,0.859c0.152,0.146,0.311,0.286,0.459,0.435l0.453,0.443
		c0.299,0.298,0.607,0.585,0.893,0.896l0.434,0.458c0.143,0.155,0.294,0.304,0.431,0.463l0.253,0.309
		c-0.321-0.032-0.645-0.063-0.969-0.088c-1.452-0.117-2.91-0.179-4.344-0.228c-1.434-0.043-2.846-0.025-4.211,0.006
		c-1.365,0.023-2.684,0.109-3.93,0.196c-0.622,0.047-1.229,0.096-1.814,0.153c-0.584,0.064-1.15,0.119-1.691,0.188
		c-1.084,0.12-2.072,0.274-2.947,0.412c-0.873,0.139-1.633,0.281-2.256,0.408c-0.625,0.122-1.109,0.239-1.441,0.317
		c-0.331,0.081-0.505,0.123-0.505,0.123s0.181-0.017,0.517-0.051c0.34-0.026,0.837-0.066,1.467-0.116
		c0.631-0.053,1.398-0.095,2.277-0.155c0.88-0.049,1.871-0.102,2.951-0.146c1.082-0.043,2.254-0.068,3.491-0.097
		c1.238-0.021,2.542-0.018,3.892-0.007c0.676-0.003,1.358,0.025,2.053,0.038c0.693,0.024,1.395,0.05,2.104,0.075
		c1.412,0.064,2.848,0.142,4.276,0.272c1.435,0.104,2.862,0.253,4.265,0.426c0.351,0.039,0.7,0.089,1.045,0.142
		c0.348,0.045,0.693,0.091,1.035,0.135c0.688,0.094,1.362,0.211,2.026,0.313c0.665,0.108,1.312,0.247,1.952,0.351
		c0.636,0.118,1.256,0.255,1.86,0.374c0.607,0.119,1.188,0.277,1.755,0.399c0.569,0.121,1.111,0.271,1.635,0.402
		c0.522,0.135,1.024,0.264,1.494,0.407c0.475,0.135,0.925,0.264,1.348,0.382c0.839,0.267,1.568,0.499,2.173,0.689
		c0.592,0.214,1.067,0.371,1.39,0.481c0.321,0.11,0.494,0.168,0.494,0.168s-0.162-0.083-0.465-0.239
		c-0.303-0.153-0.745-0.387-1.316-0.668c-0.576-0.267-1.281-0.587-2.096-0.934c-0.827-0.321-1.75-0.715-2.791-1.052
		c-1.029-0.369-2.164-0.714-3.371-1.048c-0.607-0.158-1.229-0.331-1.869-0.485c-0.641-0.15-1.299-0.298-1.969-0.437
		c-1.34-0.262-2.73-0.53-4.154-0.716c-0.713-0.09-1.428-0.196-2.152-0.266c-0.318-0.035-0.639-0.07-0.959-0.104l-0.328-0.483
		c-0.124-0.177-0.26-0.337-0.394-0.503l-0.403-0.5c-0.266-0.336-0.549-0.652-0.832-0.971L72.56,6.808
		c-0.143-0.163-0.289-0.311-0.436-0.467l-0.876-0.929l-0.905-0.899l-0.916-0.889c-0.307-0.294-0.61-0.59-0.93-0.879l-0.108-0.096
		l-0.177-0.047l-2.393-0.652c-0.804-0.197-1.608-0.39-2.416-0.567l-2.442-0.47c-0.821-0.126-1.637-0.28-2.464-0.372
		c-0.826-0.087-1.648-0.206-2.479-0.259l-1.244-0.102c-0.415-0.026-0.831-0.043-1.248-0.062c-0.831-0.041-1.666-0.025-2.499-0.028
		c-0.417,0.001-0.833,0.023-1.25,0.036c-0.417,0.011-0.834,0.025-1.25,0.059c-0.417,0.028-0.833,0.054-1.249,0.095l-1.245,0.146
		c-0.416,0.041-0.827,0.119-1.24,0.176l-0.621,0.095L43.556,0.81c-0.824,0.14-1.637,0.346-2.448,0.552
		C40.3,1.574,39.5,1.813,38.707,2.079c-0.788,0.28-1.568,0.58-2.332,0.918c-0.771,0.321-1.512,0.711-2.242,1.11
		c-0.728,0.409-1.436,0.847-2.108,1.337c-0.676,0.487-1.319,1.019-1.891,1.62l0.076,0.082c0.61-0.534,1.292-0.991,1.987-1.419
		c0.696-0.426,1.419-0.809,2.154-1.166c0.741-0.343,1.488-0.676,2.255-0.957c0.763-0.291,1.54-0.544,2.322-0.779
		c0.784-0.229,1.575-0.435,2.374-0.614C42.1,2.039,42.902,1.876,43.71,1.753"/>
	<path fill="#F89728" d="M66.431,21.918c0.44,0.084,0.895,0.137,1.354,0.16c0.461,0.021,0.933,0.01,1.414-0.096
		c0.239-0.045,0.482-0.129,0.718-0.236c0.237-0.113,0.463-0.268,0.656-0.463c0.398-0.393,0.59-0.947,0.641-1.424l0.018-0.172
		l0.006-0.043l0.001-0.066c0.005-0.047,0.003-0.09-0.001-0.127c-0.013-0.162-0.049-0.301-0.092-0.428
		c-0.088-0.25-0.203-0.463-0.328-0.667c-0.251-0.404-0.548-0.76-0.873-1.087c-0.328-0.325-0.688-0.624-1.094-0.87
		c-0.205-0.124-0.421-0.231-0.658-0.314c-0.055-0.022-0.129-0.041-0.191-0.061c-0.067-0.016-0.096-0.022-0.177-0.04
		c-0.116-0.018-0.235-0.037-0.352-0.049c-0.458-0.048-0.896-0.053-1.339-0.056c-0.441-0.002-0.879,0.011-1.316,0.025
		c-0.839,0.034-1.672,0.082-2.509,0.15c-0.429-0.313-0.86-0.62-1.31-0.902c-0.242-0.149-0.48-0.305-0.729-0.443
		c-0.244-0.145-0.492-0.284-0.744-0.415c-0.5-0.271-1.014-0.514-1.533-0.742c-0.262-0.11-0.522-0.222-0.789-0.32
		c-0.263-0.106-0.532-0.195-0.801-0.29c-0.27-0.085-0.538-0.175-0.812-0.249c-0.271-0.079-0.548-0.149-0.821-0.214
		c-0.276-0.066-0.555-0.122-0.832-0.176c-0.278-0.048-0.557-0.094-0.838-0.131c-0.561-0.074-1.126-0.111-1.691-0.119
		c-0.56-0.005-1.127,0.015-1.683,0.106c0.559-0.058,1.123-0.049,1.681-0.013c0.28,0.019,0.559,0.048,0.836,0.082
		c0.278,0.035,0.555,0.08,0.83,0.126c0.275,0.048,0.549,0.104,0.822,0.165c0.271,0.065,0.541,0.131,0.811,0.206
		c0.268,0.078,0.536,0.155,0.801,0.246c0.266,0.084,0.526,0.184,0.787,0.278c0.26,0.104,0.52,0.203,0.774,0.316
		c0.257,0.108,0.508,0.229,0.758,0.348c0.501,0.243,0.994,0.503,1.472,0.789c0.242,0.138,0.479,0.284,0.711,0.437
		c0.236,0.144,0.463,0.307,0.693,0.46c0.229,0.158,0.45,0.326,0.677,0.486l0.661,0.507l0.088,0.067l0.115-0.006
		c0.86-0.043,1.729-0.068,2.59-0.078c0.43-0.001,0.861-0.001,1.289,0.014c0.425,0.016,0.856,0.033,1.26,0.092l0.294,0.047
		c0.025,0.008,0.103,0.025,0.139,0.037c0.04,0.015,0.072,0.021,0.119,0.041c0.171,0.064,0.343,0.155,0.508,0.259
		c0.332,0.209,0.642,0.477,0.923,0.771c0.281,0.291,0.535,0.617,0.734,0.954c0.099,0.168,0.188,0.341,0.237,0.503
		c0.027,0.08,0.04,0.156,0.042,0.209c0.002,0.016,0.001,0.025,0,0.035v0.014l-0.004,0.037l-0.021,0.154
		c-0.052,0.379-0.182,0.686-0.411,0.904c-0.227,0.223-0.559,0.361-0.928,0.43c-0.373,0.072-0.773,0.08-1.18,0.057
		c-0.407-0.027-0.818-0.082-1.23-0.164c-0.822-0.156-1.642-0.393-2.451-0.66c-0.404-0.139-0.809-0.279-1.209-0.432
		c-0.393-0.145-0.781-0.305-1.173-0.461c-0.544-0.281-1.093-0.583-1.622-0.895c-0.268-0.156-0.526-0.322-0.789-0.483l-0.784-0.529
		c-1.114-0.716-2.347-1.284-3.712-1.493c-0.68-0.102-1.394-0.094-2.088,0.066c-0.694,0.158-1.354,0.477-1.913,0.905
		c-0.562,0.429-1.021,0.958-1.404,1.519c-0.378,0.566-0.68,1.166-0.933,1.777c-0.498,1.229-0.813,2.498-1.034,3.77
		c-0.056,0.318-0.107,0.637-0.151,0.957l-0.064,0.475c-0.022,0.168-0.039,0.328-0.054,0.492c-0.06,0.648-0.086,1.301-0.082,1.951
		c0.011,0.84,0.075,1.688,0.229,2.525l-5.217,1.164l5.718,0.658c0.188,0.48,0.429,0.953,0.734,1.389
		c0.397,0.572,0.934,1.074,1.56,1.418c0.314,0.17,0.646,0.301,0.986,0.393l0.127,0.031l0.077,0.018l0.058,0.014
		c0.078,0.014,0.149,0.031,0.248,0.045c0.189,0.029,0.359,0.045,0.545,0.047c0.722,0.027,1.488-0.211,2.064-0.656
		c0.584-0.441,0.996-1.023,1.309-1.619c0.313-0.6,0.534-1.229,0.709-1.857c0.346-1.264,0.51-2.549,0.594-3.828
		c0.079-1.283,0.049-2.574-0.057-3.846c-0.053-0.637-0.124-1.277-0.249-1.914s-0.294-1.275-0.597-1.877
		c-0.153-0.299-0.34-0.588-0.58-0.838c-0.236-0.251-0.529-0.464-0.859-0.59c-0.33-0.126-0.678-0.17-1.021-0.154
		c-0.148,0.006-0.336,0.027-0.498,0.062c-0.166,0.034-0.328,0.081-0.484,0.143c-0.634,0.247-1.148,0.709-1.53,1.234
		c-0.385,0.529-0.655,1.121-0.864,1.725c-0.408,1.219-0.556,2.494-0.591,3.758c0.103-1.262,0.337-2.516,0.784-3.688
		c0.228-0.58,0.516-1.141,0.897-1.623c0.38-0.479,0.866-0.871,1.431-1.064c0.139-0.049,0.281-0.082,0.428-0.107
		c0.148-0.023,0.278-0.035,0.444-0.035c0.288-0.001,0.579,0.049,0.836,0.16c0.521,0.227,0.891,0.705,1.134,1.246
		c0.244,0.543,0.389,1.145,0.49,1.752c0.098,0.609,0.152,1.23,0.183,1.855c0.066,1.254,0.058,2.5-0.056,3.744
		c-0.107,1.242-0.296,2.479-0.643,3.654c-0.176,0.584-0.393,1.152-0.68,1.67c-0.283,0.516-0.64,0.979-1.078,1.293
		c-0.438,0.313-0.949,0.471-1.493,0.445c-0.134,0-0.276-0.02-0.401-0.037c-0.057-0.008-0.142-0.027-0.219-0.043l-0.057-0.014
		l-0.041-0.01l-0.101-0.031c-0.271-0.074-0.53-0.18-0.771-0.316c-0.972-0.539-1.602-1.578-1.948-2.709
		c-0.354-1.137-0.47-2.369-0.483-3.596c-0.003-0.613,0.026-1.229,0.084-1.84c0.015-0.152,0.032-0.305,0.052-0.451l0.066-0.465
		c0.043-0.309,0.093-0.615,0.147-0.92c0.218-1.219,0.523-2.42,0.984-3.539c0.465-1.105,1.097-2.153,1.989-2.839
		c0.443-0.344,0.948-0.59,1.49-0.716c0.541-0.126,1.114-0.139,1.686-0.057c1.146,0.166,2.273,0.667,3.283,1.314l0.793,0.529
		c0.277,0.171,0.551,0.343,0.833,0.501c0.562,0.32,1.124,0.621,1.706,0.91l0.02,0.01l0.016,0.006
		c0.411,0.158,0.818,0.32,1.234,0.467c0.412,0.154,0.831,0.293,1.252,0.428C64.687,21.525,65.546,21.76,66.431,21.918"/>
	<path fill="#F89728" d="M99.993,22.541c-0.022-0.482-0.024-0.967-0.065-1.445l-0.126-1.436l-0.02-0.207l-0.17-0.088
		c-0.152-0.078-0.271-0.121-0.424-0.16c-0.145-0.033-0.305-0.055-0.479-0.035c-0.173,0.018-0.366,0.086-0.512,0.213l-0.079,0.068
		c-0.027,0.025-0.031,0.025-0.043,0.035c-0.026,0.02-0.074,0.053-0.118,0.078c-0.179,0.115-0.386,0.217-0.59,0.311
		c-0.206,0.096-0.417,0.182-0.632,0.26c-0.428,0.156-0.867,0.273-1.308,0.33c-0.435,0.057-0.89,0.047-1.235-0.143
		c-0.168-0.092-0.308-0.232-0.397-0.41c0,0-0.011-0.023-0.003-0.008l-0.009-0.018l-0.017-0.043l-0.033-0.082l-0.039-0.135
		l-0.02-0.152c0-0.051-0.005-0.104-0.003-0.156c0.021-0.419,0.216-0.85,0.468-1.232c0.253-0.387,0.561-0.738,0.888-1.076
		c0.331-0.336,0.682-0.651,1.057-0.94c-0.4,0.252-0.782,0.535-1.147,0.842c-0.365,0.305-0.705,0.645-1.004,1.029
		c-0.147,0.191-0.283,0.396-0.394,0.62c-0.109,0.224-0.197,0.467-0.226,0.731c-0.006,0.063-0.008,0.131-0.011,0.197l0.015,0.201
		c0.015,0.066,0.028,0.145,0.046,0.207l0.027,0.082l0.015,0.045l0.007,0.021c0.011,0.031,0.009,0.021,0.015,0.033
		c0.105,0.252,0.297,0.48,0.532,0.629c0.233,0.152,0.498,0.23,0.755,0.271c0.258,0.041,0.516,0.043,0.766,0.025
		c0.502-0.033,0.982-0.143,1.45-0.285c0.236-0.072,0.466-0.154,0.694-0.244c0.229-0.092,0.453-0.189,0.682-0.316
		c0.059-0.033,0.109-0.061,0.18-0.107c0.039-0.027,0.083-0.059,0.1-0.074l0.016-0.016l0.006-0.002l0.016-0.018h0.003l0.005-0.002
		l0.011-0.01c0.036-0.023,0.075-0.037,0.138-0.041c0.071-0.004,0.175,0.018,0.276,0.055l0.062,1.193
		c0.021,0.469,0.006,0.938,0.012,1.404c0.004,0.467-0.043,0.932-0.063,1.396c-0.006,0.232-0.049,0.459-0.068,0.691
		c-0.028,0.229-0.049,0.459-0.078,0.689c-0.146,0.908-0.346,1.809-0.664,2.65c-0.318,0.838-0.787,1.617-1.381,2.17
		c-0.075,0.066-0.153,0.121-0.23,0.182c-0.072,0.051-0.161,0.096-0.221,0.131c-0.017,0.002-0.03,0.012-0.043,0.025
		c0.002,0.008-0.031,0.012-0.063,0.016l-0.088,0.016h-0.285l-1.426,0.006l-2.848,0.016l-0.072,0.002
		c0.143-0.17,0.327-0.383,0.525-0.66c0.26-0.365,0.57-0.826,0.797-1.436c0.112-0.305,0.202-0.65,0.217-1.037
		c0.013-0.385-0.078-0.816-0.303-1.199c-0.223-0.385-0.56-0.701-0.936-0.951c-0.377-0.254-0.799-0.432-1.233-0.584
		c-0.867-0.309-1.836-0.43-2.799-0.512c-0.966-0.057-1.958-0.104-2.964-0.102c-1.004-0.006-2.024,0.018-3.043,0.051
		c-1.019,0.039-2.035,0.088-3.035,0.15c-1,0.061-1.982,0.15-2.932,0.229c-0.95,0.078-1.868,0.18-2.738,0.279
		c-0.434,0.049-0.856,0.096-1.266,0.152c-0.4,0.059-0.832,0.113-1.194,0.188c-0.013,0-0.078,0.014-0.119,0.033
		c-0.044,0.018-0.095,0.033-0.128,0.061c-0.037,0.027-0.072,0.057-0.105,0.084c-0.027,0.027-0.051,0.059-0.072,0.09
		c-0.09,0.121-0.125,0.234-0.161,0.34c-0.06,0.213-0.078,0.404-0.087,0.59c-0.016,0.367,0.007,0.705,0.035,1.018
		c0.057,0.629,0.158,1.162,0.241,1.602c0.084,0.438,0.169,0.779,0.226,1.012c0.059,0.232,0.093,0.354,0.093,0.354
		s-0.05-0.508-0.101-1.393c-0.023-0.441-0.045-0.98-0.035-1.59c0.004-0.303,0.02-0.625,0.072-0.949
		c0.027-0.158,0.06-0.324,0.111-0.459c0.027-0.063,0.059-0.123,0.086-0.148c0.006-0.006,0.013-0.014,0.017-0.018
		c0.005,0,0.007,0,0.007-0.002c0.002-0.006,0.004,0.004,0.002,0.004c0.002,0,0.007,0,0.016,0c0.391-0.043,0.752-0.055,1.167-0.076
		c0.409-0.023,0.831-0.045,1.265-0.068c0.87-0.041,1.786-0.084,2.735-0.129c0.947-0.041,1.929-0.082,2.924-0.125
		c0.995-0.039,2.007-0.078,3.017-0.117c1.009-0.039,2.02-0.064,3.012-0.084c0.496-0.012,0.986-0.004,1.473-0.016
		c0.485-0.006,0.96,0.014,1.43,0.018c0.232,0.014,0.461,0.029,0.689,0.041c0.113,0.008,0.227,0.014,0.339,0.02
		c0.109,0.014,0.218,0.025,0.325,0.039c0.429,0.035,0.863,0.123,1.254,0.229c0.788,0.217,1.503,0.555,1.875,1.084
		c0.378,0.521,0.361,1.203,0.219,1.77c-0.146,0.568-0.375,1.057-0.58,1.443c-0.174,0.326-0.33,0.584-0.45,0.777l-5.514,0.068
		c-0.95,0.008-1.9,0.033-2.849,0.049l-2.85,0.057l-2.85,0.07l-2.85,0.076c-1.9,0.066-3.801,0.119-5.698,0.203
		c-1.899,0.074-3.8,0.166-5.7,0.275c1.9,0.076,3.801,0.137,5.701,0.176c1.9,0.053,3.801,0.072,5.7,0.104l2.85,0.029l2.85,0.021
		l2.851,0.008c0.949,0,1.9,0.008,2.85,0l5.7-0.029l2.849-0.035l1.365-0.016c0.033,0.107,0.066,0.232,0.094,0.381
		c0.028,0.119,0.045,0.25,0.059,0.389c0.014,0.141,0.016,0.289,0.014,0.441c-0.01,0.152-0.012,0.314-0.048,0.473
		c-0.021,0.164-0.067,0.322-0.116,0.484c-0.041,0.162-0.127,0.311-0.187,0.467c-0.077,0.15-0.169,0.291-0.251,0.43
		c-0.094,0.133-0.195,0.254-0.287,0.375c-0.094,0.121-0.207,0.211-0.299,0.307c-0.094,0.096-0.182,0.186-0.271,0.248
		c-0.086,0.066-0.161,0.127-0.224,0.174c-0.125,0.098-0.196,0.152-0.196,0.152s0.079-0.041,0.222-0.111
		c0.07-0.037,0.158-0.08,0.256-0.133c0.102-0.043,0.205-0.115,0.32-0.193c0.111-0.08,0.249-0.152,0.369-0.258
		c0.119-0.105,0.251-0.215,0.381-0.334c0.116-0.135,0.246-0.268,0.361-0.416c0.102-0.158,0.229-0.309,0.313-0.484
		c0.092-0.172,0.183-0.346,0.244-0.531c0.075-0.18,0.117-0.365,0.166-0.547c0.037-0.18,0.068-0.361,0.086-0.531
		c0.014-0.17,0.025-0.334,0.021-0.484c0.002-0.176-0.01-0.334-0.023-0.471c0.067-0.031,0.115-0.063,0.174-0.096
		c0.063-0.041,0.135-0.074,0.188-0.117c0.11-0.088,0.225-0.172,0.328-0.262c0.801-0.748,1.285-1.676,1.625-2.613
		c0.334-0.943,0.524-1.914,0.658-2.881c0.045-0.486,0.099-0.971,0.113-1.455C99.983,23.508,100.013,23.021,99.993,22.541"/>
	<path fill="#F89728" d="M70.775,25.73c0,0,0-0.002,0.001-0.002C70.771,25.73,70.778,25.729,70.775,25.73"/>
	<path fill="#F89728" d="M47.734,16.134c-0.081,0.339-0.159,0.416-0.435,0.426c-0.225,0-0.324,0.105-0.393,0.414l-0.09,0.386
		l0.169,0.202c0.137,0.173,0.256,0.221,0.552,0.221h0.531l-0.206,0.906c-0.089,0.358-0.188,0.436-0.563,0.436h-0.63
		c-0.255,0-0.354-0.041-0.482-0.203l-0.107-0.127c-0.375,0.347-0.453,0.357-2.197,0.357c-0.778,0-1.191-0.088-1.487-0.298
		c-0.305-0.222-0.472-0.587-0.472-1.071c0-0.722,0.286-1.753,0.61-2.178c0.198-0.271,0.404-0.385,0.857-0.493
		c-0.167-0.259-0.207-0.415-0.207-0.722c0-0.617,0.335-1.207,0.847-1.476c0.325-0.173,0.758-0.25,1.388-0.25
		c1.261,0,1.822,0.357,1.822,1.158c0,0.326-0.109,0.683-0.256,0.857c-0.119,0.134-0.138,0.134-0.591,0.134h-0.996l0.051-0.192
		c0.177-0.087,0.226-0.173,0.226-0.336c0-0.215-0.167-0.349-0.435-0.349c-0.285,0-0.482,0.183-0.482,0.454
		c0,0.155,0.03,0.212,0.227,0.473l0.561,0.771c0.06-0.241,0.197-0.329,0.533-0.329h1.852L47.734,16.134z M44.296,16.366
		c-0.147,0.067-0.217,0.134-0.285,0.241c-0.119,0.211-0.208,0.55-0.208,0.802c0,0.298,0.188,0.442,0.59,0.442
		c0.385,0,0.592-0.125,0.691-0.425L44.296,16.366z"/>
	<path fill="#F89728" d="M0.791,17.918c-0.402,0-0.537-0.028-0.641-0.116C0.044,17.715,0,17.597,0,17.479
		c0-0.101,0.031-0.276,0.09-0.495l1.73-7.372c0.119-0.497,0.119-0.497,0.119-0.628c0-0.22-0.15-0.349-0.462-0.438l0.088-0.365h5.71
		c0.954,0,1.37,0.087,1.744,0.365c0.417,0.322,0.656,0.905,0.656,1.65c0,0.947-0.239,2.235-0.731,4.059
		c-0.283,1.049-0.641,1.971-0.924,2.407c-0.328,0.527-0.775,0.907-1.251,1.097c-0.313,0.115-0.686,0.159-1.327,0.159H0.791z
		 M3.519,15.875h0.73c0.73,0,0.956-0.162,1.222-0.848c0.166-0.438,0.478-1.503,0.657-2.292c0.222-0.992,0.313-1.503,0.313-1.853
		c0-0.497-0.299-0.729-0.953-0.729H4.861L3.519,15.875z"/>
	<path fill="#F89728" d="M17.712,15.35c0.194,0.466,0.268,0.526,0.686,0.526h0.327l-0.327,1.415
		c-0.121,0.468-0.314,0.627-0.791,0.627h-1.655c-0.434,0-0.478-0.043-0.656-0.642l-1.163-3.649h-0.267l-0.686,2.861
		C13.075,17,13.075,16.984,13.075,17.1c0,0.233,0.15,0.38,0.477,0.452l-0.089,0.366h-3.041c-0.373,0-0.611-0.175-0.611-0.452
		c0-0.057,0.029-0.219,0.074-0.408l1.758-7.445c0.076-0.352,0.105-0.497,0.105-0.628c0-0.22-0.149-0.349-0.462-0.438l0.09-0.365
		h6.111c0.76,0,1.119,0.073,1.417,0.321c0.343,0.262,0.536,0.758,0.536,1.357c0,1.036-0.476,2.41-1.058,3.051
		c-0.372,0.424-0.7,0.584-1.356,0.716L17.712,15.35z M14.238,12.007h0.774c0.522,0,0.79-0.103,1.028-0.409
		c0.181-0.205,0.314-0.643,0.314-0.949c0-0.438-0.209-0.613-0.776-0.613H14.7L14.238,12.007z"/>
	<path fill="#F89728" d="M21.379,9.613c0.089-0.352,0.104-0.481,0.104-0.628c0-0.22-0.133-0.349-0.461-0.438l0.088-0.365h2.833
		c0.596,0,0.819,0.132,0.805,0.481c0,0.088-0.03,0.206-0.061,0.352l-1.756,7.474c-0.105,0.51-0.105,0.497-0.105,0.628
		c0,0.217,0.135,0.35,0.446,0.436l-0.089,0.365h-2.876c-0.418,0-0.523-0.013-0.627-0.146c-0.073-0.087-0.119-0.19-0.119-0.293
		c0-0.087,0.045-0.291,0.104-0.554L21.379,9.613z"/>
	<path fill="#F89728" d="M27.192,17.918c-0.388,0-0.551-0.159-0.567-0.598l-0.491-7.926c-0.045-0.613-0.15-0.746-0.642-0.817
		l0.09-0.396h2.846c0.552,0,0.701,0.132,0.717,0.642l0.148,4.92l2.281-4.293c0.119-0.219,0.178-0.393,0.178-0.511
		c0-0.203-0.164-0.335-0.446-0.363l0.089-0.396h2.43c0.551,0,0.73,0.087,0.73,0.365c0,0.089-0.045,0.234-0.104,0.351l-4.874,9.021
		H27.192z"/>
	<path fill="#F89728" d="M41.906,9.189c-0.179,0.789-0.268,0.848-1.208,0.848h-2.102L38.193,11.7h2.952l-0.254,1.08
		c-0.165,0.702-0.342,0.861-0.999,0.861h-2.146l-0.536,2.234h2.385c0.759,0,0.91-0.073,1.103-0.599h0.433l-0.433,1.84
		c-0.164,0.699-0.313,0.801-1.103,0.801h-5.173c-0.507,0-0.716-0.146-0.716-0.496c0-0.072,0.016-0.19,0.076-0.438l1.744-7.372
		c0.104-0.512,0.104-0.497,0.104-0.628c0-0.22-0.148-0.365-0.476-0.438l0.089-0.365h6.901L41.906,9.189z"/>
	<path fill="#1B4298" d="M14.881,20.486c-0.129,0.561-0.243,0.643-0.902,0.643h-1.031c-1.073,0-1.247,0.127-1.591,1.082
		c-0.07,0.209-0.185,0.645-0.371,1.332c-0.33,1.248-0.443,1.863-0.443,2.244c0,0.352,0.129,0.602,0.372,0.729
		c0.201,0.113,0.373,0.141,0.916,0.141h0.888c0.831,0,1.003-0.07,1.219-0.563h0.385l-0.373,1.588
		c-0.228,0.953-0.5,1.064-2.593,1.064c-0.356,0-0.83,0-1.518-0.014c-0.93-0.029-1.431-0.141-1.804-0.436
		c-0.416-0.32-0.644-0.91-0.644-1.598c0-0.715,0.156-1.713,0.516-3.227c0.272-1.164,0.645-2.301,0.917-2.82
		c0.572-1.078,1.247-1.4,2.849-1.4h3.496L14.881,20.486z"/>
	<path fill="#F89728" d="M43.992,8.783c0,0.349-0.28,0.624-0.635,0.624c-0.356,0-0.64-0.275-0.64-0.624
		c0-0.348,0.283-0.621,0.643-0.621C43.712,8.162,43.992,8.436,43.992,8.783 M42.876,8.783c0,0.277,0.209,0.496,0.484,0.496
		c0.269,0.003,0.474-0.219,0.474-0.493c0-0.276-0.205-0.5-0.48-0.5C43.085,8.287,42.876,8.51,42.876,8.783 M43.26,9.104h-0.146
		v-0.62c0.057-0.008,0.137-0.019,0.239-0.019c0.117,0,0.17,0.019,0.212,0.049c0.036,0.027,0.063,0.072,0.063,0.132
		c0,0.076-0.056,0.124-0.128,0.148v0.007c0.061,0.019,0.091,0.066,0.11,0.151c0.018,0.094,0.033,0.129,0.045,0.151h-0.151
		c-0.02-0.021-0.031-0.075-0.049-0.151c-0.011-0.064-0.048-0.094-0.129-0.094H43.26V9.104z M43.264,8.756h0.066
		c0.08,0,0.144-0.026,0.144-0.091c0-0.057-0.042-0.094-0.132-0.094c-0.037,0-0.064,0.004-0.079,0.007V8.756z"/>
	<path fill="#1B4298" d="M42.562,20.064c0.043-0.168,0.071-0.293,0.071-0.379c0.017-0.295-0.2-0.434-0.686-0.434h-2.794l-0.086,0.35
		c0.301,0.084,0.431,0.209,0.431,0.42c0,0.129-0.029,0.295-0.101,0.604l-0.472,2.02h-1.763l0.63-2.65
		c0.015-0.098,0.03-0.184,0.03-0.279c0-0.324-0.202-0.463-0.617-0.463H34.34l-0.086,0.35c0.302,0.084,0.444,0.209,0.444,0.42
		c0,0.129-0.027,0.295-0.1,0.604l-0.739,3.129c0.189,0.152,0.354,0.32,0.489,0.508c0.544,0.752,0.418,1.506,0.414,1.537
		c-0.186,1.127-0.785,1.779-1.888,2.166c-0.014,0.08-0.022,0.156-0.022,0.221c-0.015,0.266,0.201,0.42,0.558,0.42h2.908l0.086-0.352
		c-0.302-0.082-0.431-0.223-0.431-0.418c0-0.154-0.016-0.127,0.114-0.605l0.673-2.889h1.763l-0.788,3.352
		c-0.058,0.211-0.086,0.379-0.086,0.449c0,0.324,0.202,0.463,0.659,0.463h2.807l0.086-0.352c-0.3-0.082-0.429-0.223-0.429-0.418
		c0-0.127,0-0.127,0.114-0.605L42.562,20.064z"/>
	<path fill="#1B4298" d="M22.585,20.051c-0.028-0.715-0.114-0.799-0.788-0.799h-3.74l-0.086,0.365
		c0.301,0.041,0.402,0.125,0.402,0.336c0,0.139-0.015,0.182-0.186,0.49l-3.838,7.32c-0.143,0.295-0.172,0.352-0.172,0.463
		c0,0.254,0.157,0.379,0.457,0.379h2.579L17.3,28.24c-0.299-0.055-0.402-0.154-0.402-0.379c0-0.152,0.015-0.168,0.158-0.477
		l0.444-0.982h2.479l0.018,0.672c0.926-0.398,1.889-0.689,2.886-0.867L22.585,20.051z M19.937,24.777h-1.664l1.562-3.395"/>
</g>
</svg>
